<svg xmlns="http://www.w3.org/2000/svg"  viewBox="0 0 24 24" width="96px" height="96px"><path d="M22.447,6.105L20.27,5.017l0.659-1.646c0.148-0.37,0.062-0.793-0.219-1.076s-0.705-0.373-1.075-0.226l-2.401,0.943	l-0.468-2.2c-0.064-0.301-0.263-0.557-0.541-0.691c-0.277-0.135-0.601-0.134-0.877,0.001L12.207,1.66l-1.324-1.342	C10.495-0.074,9.865-0.08,9.471,0.306L6.89,2.829L3.985,2.506c-0.356-0.033-0.7,0.112-0.912,0.396	c-0.212,0.284-0.258,0.66-0.121,0.986l0.721,1.713L2.088,7C1.845,7.215,1.721,7.535,1.756,7.857C1.791,8.181,1.98,8.467,2.264,8.624	L4,9.588v2.615c-1.161,0.414-2,1.514-2,2.816c0,1.372,0.926,2.533,2.232,2.888C5.085,21.44,8.299,24.02,12,24.02	c3.717,0,6.929-2.581,7.769-6.119C21.052,17.56,22,16.389,22,15c0-1.302-0.839-2.402-2-2.816V9.535l2.555-1.703	c0.296-0.197,0.465-0.538,0.443-0.895C22.976,6.582,22.766,6.265,22.447,6.105z M18,10v2h-3v-2H18z M6,10h3v2H6V10z M11,10h2v2h-2	V10z M18.92,16c-0.5,0-0.924,0.37-0.991,0.866c-0.103,0.765-0.358,1.477-0.723,2.118l-1.758-0.879	c-0.496-0.245-1.095-0.046-1.342,0.447c-0.247,0.494-0.047,1.095,0.447,1.342l1.349,0.674C14.846,21.474,13.477,22.02,12,22.02	c-1.472,0-2.84-0.546-3.897-1.453l1.344-0.672c0.494-0.247,0.694-0.848,0.447-1.342c-0.247-0.493-0.847-0.692-1.342-0.447	l-1.755,0.878c-0.364-0.637-0.62-1.344-0.727-2.103C6,16.387,5.498,16.02,5,16.02c-0.551,0-1-0.448-1-1s0.449-1,1-1	c0.219,0,13.904-0.02,14.001-0.02C19.552,14.001,20,14.449,20,15C20,15.552,19.551,16,18.92,16z"/></svg>